<svg width="40" height="40" viewBox="0 0 40 40" fill="none" xmlns="http://www.w3.org/2000/svg">
<circle cx="20" cy="20" r="20" fill="white"/>
<circle cx="20" cy="20" r="19.5" stroke="#9B9B9B" stroke-opacity="0.60278"/>
<path fill-rule="evenodd" clip-rule="evenodd" d="M24.6084 22.3962V17.832C24.6084 15.4739 22.8164 13.5468 20.5124 13.2932V12.5071C20.5124 12.2282 20.282 12 20.0004 12C19.7188 12 19.4884 12.2282 19.4884 12.5071V13.2932C17.1844 13.5468 15.3924 15.4739 15.3924 17.832V22.3962C15.3924 23.4865 14.6244 24.3994 13.6004 24.6276V26.1997H26.4004V24.6276C25.3764 24.3994 24.6084 23.4865 24.6084 22.3962ZM19.9486 28C21.075 28 22.0734 27.4929 22.739 26.7068H17.1582C17.8238 27.4929 18.8478 28 19.9486 28ZM16.4171 22.3961C16.4171 23.5625 15.8027 24.6021 14.8555 25.1853C14.7787 25.236 25.2235 25.236 25.1467 25.1853C24.1995 24.6021 23.5851 23.5625 23.5851 22.3961V17.8319C23.5851 16.0062 22.2027 14.5102 20.4107 14.3074L20.0011 14.2566L19.5915 14.3074C17.7995 14.5102 16.4171 16.0062 16.4171 17.8319V22.3961Z" fill="#343434"/>
<circle cx="23.2" cy="15.2" r="3.2" fill="#FF2D55"/>
</svg>
