<svg width="16" height="16" viewBox="0 0 16 16" fill="none" xmlns="http://www.w3.org/2000/svg">
<circle cx="8" cy="8" r="8" fill="#FFF3F3"/>
<path d="M11.4769 5.14517H10.4774C10.464 5.14054 10.4501 5.13753 10.436 5.13614H9.37174V4.25348C9.3718 4.18714 9.3458 4.12346 9.29945 4.07608C9.25304 4.02871 9.18995 4.00138 9.12369 4H6.60672C6.53948 4 6.47501 4.02667 6.42752 4.07422C6.37997 4.12177 6.35324 4.18624 6.35324 4.25348V5.13614H5.29439C5.2803 5.13753 5.2664 5.14054 5.25303 5.14517H4.25347C4.16288 5.14517 4.07921 5.19345 4.03395 5.27188C3.98868 5.35031 3.98868 5.44691 4.03395 5.52535C4.07921 5.60378 4.16288 5.65211 4.25347 5.65211H5.06783L5.72585 11.7735C5.7329 11.8358 5.76263 11.8933 5.8094 11.9351C5.85611 11.9769 5.91661 11.9999 5.97932 12H9.75462C9.81668 11.9991 9.87627 11.9756 9.92233 11.9339C9.96831 11.8922 9.99751 11.8352 10.0045 11.7735L10.6625 5.66105H11.4769C11.5675 5.66105 11.6511 5.61277 11.6964 5.53434C11.7417 5.45591 11.7417 5.35924 11.6964 5.28087C11.6511 5.20244 11.5675 5.1541 11.4769 5.1541L11.4769 5.14517ZM6.86566 4.50695H8.86472V5.13614H6.86566V4.50695ZM9.52455 11.4894H6.20582L5.57663 5.66111H10.1537L9.52455 11.4894Z" fill="#E41D1D"/>
<path d="M7.86529 10.8963C7.93252 10.8963 7.99699 10.8695 8.04454 10.822C8.09209 10.7745 8.11876 10.71 8.11876 10.6428V6.50797C8.11876 6.41738 8.07049 6.33371 7.99205 6.28845C7.91362 6.24312 7.81696 6.24312 7.73852 6.28845C7.66009 6.33371 7.61182 6.41738 7.61182 6.50797V10.6428C7.61182 10.71 7.63848 10.7745 7.68603 10.822C7.73359 10.8695 7.79805 10.8963 7.86529 10.8963H7.86529Z" fill="#E41D1D"/>
<path d="M6.86749 10.8944H6.87826C6.9452 10.8916 7.00828 10.8624 7.05379 10.8132C7.09924 10.7641 7.12343 10.6989 7.12097 10.6319L6.96814 6.49713L6.9682 6.49707C6.96681 6.42935 6.93786 6.36506 6.88796 6.3192C6.838 6.27339 6.77155 6.24997 6.7039 6.25437C6.63696 6.2572 6.57388 6.28639 6.52843 6.33557C6.48292 6.38475 6.45879 6.44994 6.46119 6.51688L6.61402 10.6517C6.61721 10.7169 6.64526 10.7784 6.69245 10.8235C6.73959 10.8686 6.80225 10.894 6.86749 10.8944L6.86749 10.8944Z" fill="#E41D1D"/>
<path d="M8.8539 10.8944H8.86287C8.92968 10.8959 8.99439 10.8711 9.04315 10.8254C9.09184 10.7797 9.12073 10.7166 9.12356 10.6499L9.27639 6.51507H9.27633C9.2788 6.44814 9.2546 6.38295 9.20916 6.33377C9.16365 6.28459 9.10057 6.2554 9.03363 6.25257C8.96519 6.24553 8.89693 6.26762 8.84559 6.31348C8.79424 6.35929 8.76463 6.42466 8.76397 6.49353L8.60933 10.6283H8.60939C8.60596 10.6962 8.62992 10.7626 8.67591 10.8126C8.72183 10.8626 8.786 10.8921 8.8539 10.8944L8.8539 10.8944Z" fill="#E41D1D"/>
</svg>
