<svg width="32" height="32" viewBox="0 0 32 32" fill="none" xmlns="http://www.w3.org/2000/svg">
<mask id="mask0_36009_3538" style="mask-type:alpha" maskUnits="userSpaceOnUse" x="4" y="4" width="24" height="24">
<rect x="4" y="4" width="24" height="24" fill="#D9D9D9"/>
</mask>
<g mask="url(#mask0_36009_3538)">
<path d="M16 19.4115C15.8795 19.4115 15.7673 19.3923 15.6634 19.3538C15.5596 19.3154 15.4609 19.2493 15.3673 19.1557L12.2577 16.0462C12.109 15.8974 12.0356 15.7234 12.0375 15.5241C12.0394 15.3247 12.1128 15.1475 12.2577 14.9923C12.4128 14.8372 12.591 14.7571 12.7923 14.752C12.9936 14.7468 13.1718 14.8218 13.3269 14.977L15.25 16.9V9.25C15.25 9.03718 15.3218 8.85898 15.4654 8.7154C15.609 8.5718 15.7872 8.5 16 8.5C16.2128 8.5 16.391 8.5718 16.5346 8.7154C16.6782 8.85898 16.7499 9.03718 16.7499 9.25V16.9L18.673 14.977C18.8217 14.8282 18.9983 14.7548 19.2028 14.7568C19.4073 14.7587 19.5871 14.8372 19.7422 14.9923C19.8871 15.1475 19.9621 15.3231 19.9672 15.5193C19.9724 15.7154 19.8974 15.891 19.7422 16.0462L16.6327 19.1557C16.5391 19.2493 16.4403 19.3154 16.3365 19.3538C16.2327 19.3923 16.1205 19.4115 16 19.4115ZM10.3077 23.5C9.80257 23.5 9.375 23.325 9.025 22.975C8.675 22.625 8.5 22.1974 8.5 21.6923V19.7307C8.5 19.5179 8.5718 19.3397 8.7154 19.1961C8.85898 19.0525 9.03718 18.9808 9.25 18.9808C9.46282 18.9808 9.64102 19.0525 9.7846 19.1961C9.92818 19.3397 9.99997 19.5179 9.99997 19.7307V21.6923C9.99997 21.7692 10.032 21.8397 10.0961 21.9038C10.1602 21.9679 10.2308 22 10.3077 22H21.6922C21.7692 22 21.8397 21.9679 21.9038 21.9038C21.9679 21.8397 22 21.7692 22 21.6923V19.7307C22 19.5179 22.0718 19.3397 22.2154 19.1961C22.3589 19.0525 22.5371 18.9808 22.75 18.9808C22.9628 18.9808 23.141 19.0525 23.2845 19.1961C23.4281 19.3397 23.5 19.5179 23.5 19.7307V21.6923C23.5 22.1974 23.325 22.625 22.975 22.975C22.625 23.325 22.1974 23.5 21.6922 23.5H10.3077Z" fill="#35353A"/>
</g>
</svg>
