<svg width="24" height="24" viewBox="0 0 24 24" fill="none" xmlns="http://www.w3.org/2000/svg">
<mask id="mask0_36009_3544" style="mask-type:alpha" maskUnits="userSpaceOnUse" x="0" y="0" width="24" height="24">
<rect width="24" height="24" fill="#D9D9D9"/>
</mask>
<g mask="url(#mask0_36009_3544)">
<path d="M4.40385 20.5C4.14777 20.5 3.93311 20.4133 3.75987 20.2401C3.58662 20.0668 3.5 19.8522 3.5 19.5961V13.75C3.5 13.5375 3.57191 13.3594 3.71572 13.2156C3.85954 13.0719 4.03774 13 4.25033 13C4.46293 13 4.64102 13.0719 4.7846 13.2156C4.92818 13.3594 4.99997 13.5375 4.99997 13.75V17.9558L17.9558 4.99998H13.75C13.5375 4.99998 13.3594 4.92807 13.2156 4.78425C13.0719 4.64045 13 4.46225 13 4.24965C13 4.03707 13.0719 3.85898 13.2156 3.7154C13.3594 3.5718 13.5375 3.5 13.75 3.5H19.5961C19.8522 3.5 20.0668 3.58663 20.2401 3.75988C20.4133 3.93311 20.5 4.14777 20.5 4.40385V10.25C20.5 10.4625 20.428 10.6406 20.2842 10.7844C20.1404 10.9281 19.9622 11 19.7496 11C19.537 11 19.3589 10.9281 19.2154 10.7844C19.0718 10.6406 19 10.4625 19 10.25V6.04418L6.04418 19H10.25C10.4625 19 10.6406 19.0719 10.7844 19.2157C10.9281 19.3595 11 19.5377 11 19.7503C11 19.9629 10.9281 20.141 10.7844 20.2846C10.6406 20.4282 10.4625 20.5 10.25 20.5H4.40385Z" fill="#35353A"/>
</g>
</svg>
