<svg width="32" height="32" viewBox="0 0 32 32" fill="none" xmlns="http://www.w3.org/2000/svg">
<mask id="mask0_36009_3530" style="mask-type:alpha" maskUnits="userSpaceOnUse" x="4" y="4" width="24" height="24">
<rect x="4" y="4" width="24" height="24" fill="#D9D9D9"/>
</mask>
<g mask="url(#mask0_36009_3530)">
<path d="M15.3848 23.5C15.1335 23.5 14.9232 23.4153 14.754 23.2461C14.5847 23.0769 14.5001 22.8666 14.5001 22.6153V16.8269L8.90208 9.71538C8.70978 9.45896 8.6819 9.19229 8.81843 8.91538C8.95497 8.63846 9.18541 8.5 9.50976 8.5H22.4905C22.8148 8.5 23.0452 8.63846 23.1818 8.91538C23.3183 9.19229 23.2904 9.45896 23.0981 9.71538L17.5001 16.8269V22.6153C17.5001 22.8666 17.4155 23.0769 17.2462 23.2461C17.077 23.4153 16.8667 23.5 16.6155 23.5H15.3848ZM16.0001 16.3L20.9501 9.99998H11.0501L16.0001 16.3Z" fill="#35353A"/>
</g>
</svg>
