<svg width="32" height="32" viewBox="0 0 32 32" fill="none" xmlns="http://www.w3.org/2000/svg">
<mask id="mask0_36009_3534" style="mask-type:alpha" maskUnits="userSpaceOnUse" x="4" y="4" width="24" height="24">
<rect x="4" y="4" width="24" height="24" fill="#D9D9D9"/>
</mask>
<g mask="url(#mask0_36009_3534)">
<path d="M12.3078 24.5001C11.8107 24.5001 11.3851 24.3231 11.0311 23.9691C10.6771 23.6151 10.5001 23.1895 10.5001 22.6924V20.5001H8.59625C8.09913 20.5001 7.67357 20.3231 7.31957 19.9691C6.96557 19.6151 6.78857 19.1895 6.78857 18.6924V14.8078C6.78857 14.0995 7.03056 13.5057 7.51452 13.0266C7.99849 12.5474 8.58982 12.3078 9.28852 12.3078H22.7116C23.4199 12.3078 24.0136 12.5474 24.4928 13.0266C24.972 13.5057 25.2115 14.0995 25.2115 14.8078V18.6924C25.2115 19.1895 25.0345 19.6151 24.6805 19.9691C24.3265 20.3231 23.901 20.5001 23.4038 20.5001H21.5V22.6924C21.5 23.1895 21.323 23.6151 20.969 23.9691C20.615 24.3231 20.1894 24.5001 19.6923 24.5001H12.3078ZM8.59625 19.0001H10.5001C10.5129 18.5142 10.6944 18.0979 11.0447 17.7511C11.3949 17.4043 11.8159 17.2309 12.3078 17.2309H19.6923C20.1842 17.2309 20.6052 17.4043 20.9554 17.7511C21.3057 18.0979 21.4872 18.5142 21.5 19.0001H23.4038C23.4936 19.0001 23.5673 18.9713 23.625 18.9136C23.6827 18.8559 23.7116 18.7821 23.7116 18.6924V14.8078C23.7116 14.5245 23.6157 14.287 23.4241 14.0953C23.2324 13.9036 22.9949 13.8078 22.7116 13.8078H9.28852C9.00519 13.8078 8.76769 13.9036 8.57602 14.0953C8.38436 14.287 8.28852 14.5245 8.28852 14.8078V18.6924C8.28852 18.7821 8.31737 18.8559 8.37507 18.9136C8.43277 18.9713 8.5065 19.0001 8.59625 19.0001ZM20 12.3078V9.61554C20 9.52579 19.9712 9.45206 19.9135 9.39436C19.8558 9.33668 19.7821 9.30784 19.6923 9.30784H12.3078C12.218 9.30784 12.1443 9.33668 12.0866 9.39436C12.0289 9.45206 12 9.52579 12 9.61554V12.3078H10.5001V9.61554C10.5001 9.11844 10.6771 8.69288 11.0311 8.33886C11.3851 7.98486 11.8107 7.80786 12.3078 7.80786H19.6923C20.1894 7.80786 20.615 7.98486 20.969 8.33886C21.323 8.69288 21.5 9.11844 21.5 9.61554V12.3078H20ZM21.8077 16.3078C22.0911 16.3078 22.3286 16.212 22.5202 16.0203C22.7119 15.8286 22.8077 15.5911 22.8077 15.3078C22.8077 15.0245 22.7119 14.787 22.5202 14.5953C22.3286 14.4036 22.0911 14.3078 21.8077 14.3078C21.5244 14.3078 21.2869 14.4036 21.0952 14.5953C20.9036 14.787 20.8077 15.0245 20.8077 15.3078C20.8077 15.5911 20.9036 15.8286 21.0952 16.0203C21.2869 16.212 21.5244 16.3078 21.8077 16.3078ZM20 22.6924V19.0386C20 18.9488 19.9712 18.8751 19.9135 18.8174C19.8558 18.7597 19.7821 18.7309 19.6923 18.7309H12.3078C12.218 18.7309 12.1443 18.7597 12.0866 18.8174C12.0289 18.8751 12 18.9488 12 19.0386V22.6924C12 22.7821 12.0289 22.8559 12.0866 22.9136C12.1443 22.9713 12.218 23.0001 12.3078 23.0001H19.6923C19.7821 23.0001 19.8558 22.9713 19.9135 22.9136C19.9712 22.8559 20 22.7821 20 22.6924Z" fill="#35353A"/>
</g>
</svg>
