<svg width="32" height="32" viewBox="0 0 32 32" fill="none" xmlns="http://www.w3.org/2000/svg">
<mask id="mask0_36009_3503" style="mask-type:alpha" maskUnits="userSpaceOnUse" x="4" y="4" width="24" height="24">
<rect x="4" y="4" width="24" height="24" fill="#D9D9D9"/>
</mask>
<g mask="url(#mask0_36009_3503)">
<path d="M14.4807 25.5C14.2563 25.5 14.0621 25.4246 13.898 25.274C13.7339 25.1233 13.6352 24.9358 13.6018 24.7115L13.3114 22.4538C13.0435 22.3641 12.7688 22.2384 12.4874 22.0769C12.206 21.9153 11.9544 21.7422 11.7326 21.5576L9.64412 22.4384C9.43002 22.532 9.21752 22.5429 9.00662 22.4711C8.79572 22.3993 8.63002 22.2647 8.5095 22.0673L7.0057 19.4481C6.89158 19.2506 6.85632 19.0397 6.89992 18.8154C6.94351 18.591 7.05568 18.4102 7.23645 18.2731L9.04415 16.9058C9.02107 16.757 9.00472 16.6077 8.9951 16.4577C8.98548 16.3077 8.98067 16.1583 8.98067 16.0096C8.98067 15.8673 8.98548 15.7227 8.9951 15.5759C9.00472 15.4291 9.02107 15.2686 9.04415 15.0942L7.23645 13.7269C7.05568 13.5897 6.94191 13.4089 6.89512 13.1846C6.84832 12.9602 6.88518 12.7493 7.0057 12.5519L8.5095 9.95195C8.63002 9.75452 8.79412 9.6199 9.00182 9.5481C9.20951 9.4763 9.4204 9.4872 9.6345 9.5808L11.7229 10.452C11.964 10.2609 12.2214 10.0862 12.4951 9.9279C12.7688 9.76955 13.0377 9.6423 13.3018 9.54615L13.6018 7.28848C13.6352 7.06411 13.7339 6.87661 13.898 6.72598C14.0621 6.57533 14.2563 6.5 14.4807 6.5H17.5095C17.7338 6.5 17.9296 6.57533 18.0969 6.72598C18.2643 6.87661 18.3646 7.06411 18.3979 7.28848L18.6883 9.55578C18.9883 9.66474 19.2598 9.79198 19.5027 9.9375C19.7457 10.083 19.9909 10.2545 20.2383 10.452L22.3652 9.5808C22.5793 9.4872 22.7902 9.4747 22.9979 9.5433C23.2056 9.61188 23.3697 9.74489 23.4902 9.94233L24.994 12.5519C25.1146 12.7493 25.1514 12.9602 25.1046 13.1846C25.0578 13.4089 24.9441 13.5897 24.7633 13.7269L22.9171 15.123C22.953 15.2846 22.9726 15.4355 22.9758 15.5759C22.979 15.7163 22.9806 15.8577 22.9806 16C22.9806 16.1359 22.9774 16.274 22.971 16.4144C22.9646 16.5548 22.9415 16.7154 22.9017 16.8962L24.7287 18.2731C24.9094 18.4102 25.0232 18.591 25.07 18.8154C25.1168 19.0397 25.08 19.2506 24.9594 19.4481L23.4556 22.0519C23.3351 22.2493 23.1668 22.3849 22.9508 22.4586C22.7348 22.5323 22.5197 22.5224 22.3056 22.4288L20.2383 21.548C19.9909 21.7455 19.7383 21.9201 19.4806 22.0721C19.2229 22.224 18.9588 22.348 18.6883 22.4442L18.3979 24.7115C18.3646 24.9358 18.2643 25.1233 18.0969 25.274C17.9296 25.4246 17.7338 25.5 17.5095 25.5H14.4807ZM14.9999 24H16.9652L17.3249 21.3211C17.8351 21.1878 18.3015 20.9984 18.7239 20.7529C19.1463 20.5074 19.5537 20.1917 19.946 19.8058L22.4306 20.85L23.4152 19.15L21.246 17.5154C21.3294 17.2564 21.3861 17.0025 21.4162 16.7538C21.4463 16.5051 21.4614 16.2538 21.4614 16C21.4614 15.7397 21.4463 15.4884 21.4162 15.2461C21.3861 15.0038 21.3294 14.7564 21.246 14.5038L23.4345 12.85L22.4499 11.15L19.9364 12.2096C19.6018 11.8519 19.2008 11.5359 18.7335 11.2615C18.2662 10.9872 17.7934 10.7929 17.3152 10.6788L16.9999 7.99998H15.0152L14.6845 10.6692C14.1742 10.7897 13.7031 10.9743 13.271 11.2231C12.839 11.4718 12.4268 11.7923 12.0345 12.1846L9.54987 11.15L8.56525 12.85L10.7249 14.4596C10.6415 14.6968 10.5832 14.9436 10.5499 15.2C10.5165 15.4564 10.4999 15.7263 10.4999 16.0096C10.4999 16.2699 10.5165 16.525 10.5499 16.775C10.5832 17.025 10.6383 17.2718 10.7152 17.5154L8.56525 19.15L9.54987 20.85L12.0249 19.8C12.4044 20.1897 12.8101 20.509 13.2422 20.7577C13.6742 21.0064 14.1518 21.1974 14.6749 21.3308L14.9999 24ZM16.0114 19C16.8434 19 17.5515 18.708 18.1354 18.124C18.7194 17.54 19.0114 16.832 19.0114 16C19.0114 15.1679 18.7194 14.4599 18.1354 13.876C17.5515 13.292 16.8434 13 16.0114 13C15.1691 13 14.4585 13.292 13.8797 13.876C13.3009 14.4599 13.0114 15.1679 13.0114 16C13.0114 16.832 13.3009 17.54 13.8797 18.124C14.4585 18.708 15.1691 19 16.0114 19Z" fill="#35353A"/>
</g>
</svg>
